# xmcd
#
# Track frame offsets: 
#        150
#        3375
#        31653
#        62180
#        84398
#        112295
#        153242
#        197529
#        227228
#
# Disc length: 3339 seconds
#
# Revision: 0
# Processed by: cddbd v1.5.2PL0 Copyright (c) Steve Scherf et al.
# Submitted via: ExactAudioCopy v0.99pb5
#
DISCID=690d0909
DTITLE=KOZMIC BLUE - 13.11.2009 LIVE IN GLÜCKUNDSELIGKEIT
DYEAR=2009
DGENRE=Blues
TTITLE0=Introduction
TTITLE1=Kozmic Blues
TTITLE2=All for You
TTITLE3=I'll keep trying
TTITLE4=You got the blues
TTITLE5=Diamonds and glass
TTITLE6=Follow your heart
TTITLE7=Me and Bobby McGee
TTITLE8=Happy Birthday
EXTD=
EXTT0=
EXTT1=
EXTT2=
EXTT3=
EXTT4=
EXTT5=
EXTT6=
EXTT7=
EXTT8=
PLAYORDER=
